<svg width="48" height="48" viewBox="0 0 48 48" fill="none" xmlns="http://www.w3.org/2000/svg">
<mask id="mask0_40003171_14368" style="mask-type:alpha" maskUnits="userSpaceOnUse" x="0" y="0" width="48" height="48">
<rect width="48" height="48" fill="#D9D9D9"/>
</mask>
<g mask="url(#mask0_40003171_14368)">
<path d="M24.0006 26.1538C24.4258 26.1538 24.782 26.0101 25.0692 25.7226C25.3563 25.4351 25.4999 25.0789 25.4999 24.6539V15.6038C25.4999 15.191 25.3561 14.8461 25.0685 14.5692C24.7809 14.2923 24.4245 14.1538 23.9993 14.1538C23.5741 14.1538 23.2179 14.2976 22.9308 14.5851C22.6436 14.8726 22.5 15.2288 22.5 15.6538V24.7039C22.5 25.1167 22.6438 25.4615 22.9314 25.7385C23.219 26.0154 23.5754 26.1538 24.0006 26.1538ZM24 33.4615C24.4577 33.4615 24.8413 33.3067 25.1509 32.9971C25.4605 32.6874 25.6153 32.3038 25.6153 31.8461C25.6153 31.3884 25.4605 31.0048 25.1509 30.6952C24.8413 30.3855 24.4577 30.2308 24 30.2308C23.5422 30.2308 23.1586 30.3855 22.849 30.6952C22.5394 31.0048 22.3846 31.3884 22.3846 31.8461C22.3846 32.3038 22.5394 32.6874 22.849 32.9971C23.1586 33.3067 23.5422 33.4615 24 33.4615ZM24 42.9999C21.3615 42.9999 18.8865 42.5037 16.575 41.5114C14.2635 40.5191 12.2526 39.1678 10.5423 37.4576C8.83207 35.7473 7.4808 33.7364 6.4885 31.4249C5.49617 29.1134 5 26.6384 5 24C5 21.3615 5.49617 18.8865 6.4885 16.575C7.4808 14.2635 8.83207 12.2526 10.5423 10.5423C12.2526 8.83207 14.2635 7.4808 16.575 6.4885C18.8865 5.49617 21.3615 5 24 5C26.6384 5 29.1134 5.49617 31.4249 6.4885C33.7364 7.4808 35.7473 8.83207 37.4576 10.5423C39.1678 12.2526 40.5191 14.2635 41.5114 16.575C42.5037 18.8865 42.9999 21.3615 42.9999 24C42.9999 26.6384 42.5037 29.1134 41.5114 31.4249C40.5191 33.7364 39.1678 35.7473 37.4576 37.4576C35.7473 39.1678 33.7364 40.5191 31.4249 41.5114C29.1134 42.5037 26.6384 42.9999 24 42.9999ZM24 40C28.4333 40 32.2083 38.4416 35.325 35.325C38.4416 32.2083 40 28.4333 40 24C40 19.5666 38.4416 15.7916 35.325 12.675C32.2083 9.55828 28.4333 7.99995 24 7.99995C19.5666 7.99995 15.7916 9.55828 12.675 12.675C9.55828 15.7916 7.99995 19.5666 7.99995 24C7.99995 28.4333 9.55828 32.2083 12.675 35.325C15.7916 38.4416 19.5666 40 24 40Z" fill="#B6010B"/>
</g>
</svg>
